<svg xmlns="http://www.w3.org/2000/svg" id="Layer_2" data-name="Layer 2" viewBox="0 0 125.82 24.71"><g id="Layer_1-2" data-name="Layer 1"><path d="M125.62,11.77s-.06-.05-.09-.07c-5.52-3.34-10.69-7.18-15.47-11.51-.67-.6-2.92.32-2.21.97,4.27,3.85,8.83,7.34,13.67,10.43-17.66-.7-35.34-1.08-53.02-1.14-12.64-.72-25.28-1.3-37.94-1.45-8.73-.1-17.47,0-26.2.36-.7.03-2.58,1.13-1.01,1.06,14.38-.6,28.74-.43,43.1.11-6.03.07-12.06.18-18.09.33-8.92.22-17.85.52-26.77.9-.7.03-2.58,1.13-1.01,1.06,21.97-.94,43.97-1.38,65.97-1.32,9.35.53,18.71,1.12,28.06,1.68,6.98.42,13.97.8,20.96,1.13-1.88.79-3.7,1.71-5.49,2.78-3.76,2.24-7.3,4.83-11.52,6.19-.7.22-.97.67-.89,1.01.08.34.52.56,1.24.32,9.23-2.92,18.08-6.9,26.39-11.89.15-.09.28-.22.36-.36.15-.19.17-.4-.08-.59ZM90.37,11.78c1.39.03,2.77.05,4.16.08,8.58.19,17.16.46,25.73.8-.69.2-1.37.42-2.05.66-9.28-.42-18.56-.97-27.84-1.54ZM110.09,18.86c2.89-1.8,5.85-3.29,8.99-4.39.07,0,.15.01.22.01-3.2,1.73-6.48,3.32-9.82,4.76.2-.13.4-.25.6-.38Z"></path></g></svg>